<mxfile host="app.diagrams.net" modified="2024-04-08T09:15:16.281Z" agent="Mozilla/5.0 (Macintosh; Intel Mac OS X 10_15_7) AppleWebKit/537.36 (KHTML, like Gecko) Chrome/125.0.0.0 Safari/537.36 Edg/125.0.0.0" version="24.0.6" etag="uJkvzz7frhw-iuS9hT-_" type="github">
  <diagram name="第 1 页" id="7b23wPOP-L9HQxeEMhOS">
    <mxGraphModel>
      <root>
        <mxCell id="0" />
        <mxCell id="1" parent="0" />
      </root>
    </mxGraphModel>
  </diagram>
</mxfile>
